<svg version="1.2" xmlns="http://www.w3.org/2000/svg" viewBox="0 0 1804 520" width="1804" height="520">
	<title>pepco_hldg_logo_hrz_sm_pos_cmyk-ai</title>
	<defs>
		<linearGradient id="g1" x1="77.8" y1="257.6" x2="184.2" y2="73.1" gradientUnits="userSpaceOnUse">
			<stop offset=".2" stop-color="#5149a6"/>
			<stop offset="1" stop-color="#7acf9a"/>
		</linearGradient>
	</defs>
	<style>
		.s0 { fill: #0f2278 } 
		.s1 { fill: url(#g1) } 
	</style>
	<g id="Layer 1">
		<g id="&lt;Group&gt;">
			<path id="&lt;Compound Path&gt;" fill-rule="evenodd" class="s0" d="m1365.3 280.3v-96.1c12.6-5.9 28.7-9.6 44.4-9.6c28.5 0 43.6 14.5 43.6 39.3v66.4h-20.6v-65c0-14.8-7.5-23.4-23-23.4c-8.6 0-16.9 1.8-23.8 5.3v83.1zm-101.5 2.4c-32.5 0-52.9-19.7-52.9-52.3c0-33.8 20.4-55.8 54.2-55.8c5.7 0 11.4 1 16 2.4v-42.9l20.6-1v141.1c-9.2 5.1-23 8.5-37.9 8.5zm-0.2-17.3c7.2 0 13.7-1.6 17.5-3.9v-66.3c-4.6-2.1-9.9-3.3-15-3.3c-22.2 0-34.2 13.4-34.2 37.7c0 23 12.6 35.8 31.7 35.8zm-154.2 17.3c-30.1 0-48.2-21.8-48.2-54.1c0-32.2 18.1-54 48.2-54c30.5 0 48.5 21.8 48.5 54c0 32.3-18 54.1-48.5 54.1zm0-17.3c18.5 0 27.3-14.4 27.3-36.8c0-22.2-8.8-36.7-27.3-36.7c-17.9 0-27.3 14.5-27.3 36.7c0 22.4 9.4 36.8 27.3 36.8zm548.5-94.6c1.5 0.6 3.4 1.2 5.7 1.2c2.7 0 4.2-1 4.2-3.1c0-2.4-1.8-3.1-4.7-4.1c-3.5-1.1-5.6-2.7-5.6-6.1c0-3.6 2.5-5.7 6.9-5.7c1.9 0 4 0.5 5.3 1l-0.6 2.6c-1.4-0.5-2.9-0.8-4.5-0.8c-2.7 0-4 1-4 2.9c0 2 1.4 2.7 4 3.6c3.6 1.2 6.4 2.4 6.4 6.5c0 4.1-3.2 5.9-7.3 5.9c-2.5 0-4.9-0.5-6.4-1.1zm38.3-17.5v21h-2.9v-12.1q0-1.9 0.1-3.6c-1.7 3.9-3.8 7.9-6.6 12.3h-2.6c-2.8-4.4-5-8.4-6.7-12.3q0.2 1.6 0.2 3.6v12.1h-3v-21h3.3c2 5 4.4 9.5 7.5 14.5c3.1-5 5.4-9.5 7.5-14.5zm-522.4 126.9v-146.2l20.6-1.2v147.4zm147.3-133.8c0-7.1 4.6-12.2 12.8-12.2c7.9 0 12.6 5.1 12.6 12.2c0 7.6-4.7 12.7-12.6 12.7c-8.2 0-12.8-5.1-12.8-12.7zm23.2 133.8h-20.6v-103.2h20.6zm-386.6 0v-146.4l20.6-1v47.6c6.7-3.4 14.9-5.9 25.9-5.9c25.6 0 41.5 14.5 41.5 39.3v66.4h-20.8v-64.8c0-15-7.9-23.4-23.6-23.4c-8.5 0-16.5 2.3-23 5.9v82.3zm554.9 38.9c-14.6 0-23.6-1.9-34-6l4.3-16.6c9 3.4 17.7 5 28.5 5c18.1 0 27.7-8.3 27.7-22.4v-8.5c-6.3 3.3-13.8 5.3-22.4 5.3c-29.1 0-47.4-17.7-47.4-48.7c0-32.5 20.7-52.7 52.3-52.7c15.3 0 29.1 3.9 38.1 8.1v94.7c0 27.1-18.2 41.8-47.1 41.8zm7-60.7c8.1 0 14.4-2.1 19.5-5.3v-58c-4.5-1.7-11-3.3-17.5-3.3c-19.3 0-31.4 12.8-31.4 33.8c0 20.4 10.8 32.8 29.4 32.8zm123.3-61.5c-8.7-2.6-16.9-5.1-27.3-5.1c-10.7 0-18.3 3.7-18.3 12.6c0 9.2 8 12 20 15.7c22.6 6.3 34.4 13.6 34.4 31.8c0 20.7-17.1 30.7-40.1 30.7c-13.1 0-27.5-3-35.2-6.3l3-17.3c9 3.5 19.8 6.3 32 6.3c12 0 19.9-4.7 19.9-13c0-9-7.5-11.8-24.6-16.7c-17.5-5.1-29.7-12.8-29.7-30.8c0-19.5 13.8-30.3 37.2-30.3c11.4 0 23.4 2.2 31.2 5.5zm-1211.7 85.5c-9.1 0-15.2-1.8-20.5-4.1v39.8h-20.6v-134.4c12.4-6.1 27.5-9.2 40.3-9.2c32.6 0 50.5 20.8 50.5 51.9c0 33-17.1 56-49.7 56zm-2.8-17.1c21.1 0 31.1-13.6 31.1-38.3c0-20.1-8.7-35.2-30.1-35.2c-7.3 0-13.4 1.9-18.7 4.3v64.7c4.6 2.3 9.7 4.5 17.7 4.5zm154.3 10.2c-9.6 4.5-21.8 7.1-35.1 7.1c-32.3 0-53.7-19.7-53.7-54.1c0-31.8 18.9-54 48.6-54c26.9 0 42.8 19.4 42.8 45.2c0 5.3-0.4 9.8-0.8 13.6h-69.4c2 21.8 14.4 31.8 34.4 31.8c10.1 0 20.5-2.4 29.7-6.3zm-67.4-55.4h49.9c0.2-1.2 0.2-2 0.2-3.2c0-13.7-7.1-25.5-22.8-25.5c-15.9 0-25.5 11.2-27.3 28.7zm129.8 62.3c-9.1 0-15.3-1.8-20.6-4v39.7h-20.5v-134.4c12.4-6.1 27.5-9.2 40.3-9.2c32.6 0 50.5 20.8 50.5 51.9c0 33-17.1 56-49.7 56zm-2.8-17.1c21.1 0 31.1-13.6 31.1-38.2c0-20.2-8.7-35.3-30.1-35.3c-7.3 0-13.5 1.9-18.8 4.3v64.8c4.7 2.2 9.8 4.4 17.8 4.4zm145.7-84.7l-4.1 16.5c-7.7-3.2-16.5-5.3-24.4-5.3c-20 0-30.8 14.5-30.8 36.9c0 23.8 11.4 36.6 32.8 36.6c7.6 0 15.9-2 23.4-5.7l3.7 16.7c-7.1 3.7-17.5 6.3-28.5 6.3c-33.4 0-52.3-20.1-52.3-53.5c0-32.8 18.3-54.6 50.3-54.6c11.6 0 22.4 2.7 29.9 6.1zm56 102c-30.2 0-48.3-21.7-48.3-54.1c0-32.2 18.1-54 48.3-54c30.5 0 48.4 21.8 48.4 54c0 32.4-17.9 54.1-48.4 54.1zm0-17.3c18.5 0 27.2-14.4 27.2-36.8c0-22.2-8.7-36.7-27.2-36.7c-18 0-27.3 14.5-27.3 36.7c0 22.4 9.3 36.8 27.3 36.8zm-427.4 130h-21.2c-1.6 4.5-3 9.2-4.4 13.8h-5c5.3-16.9 10.9-32.9 17.4-47h5.1c6.6 14.1 12.3 29.9 17.5 47h-5c-1.4-4.6-2.8-9.3-4.4-13.8zm-19.8-4.3h18.4c-3.3-9.6-6.6-18.2-9.2-24c-2.6 5.8-5.9 14.4-9.2 24zm39.2 18.1v-47h4.8c8.2 14.6 16.2 26.6 26.1 40.2c-0.1-1.7-0.2-3.9-0.2-6.4v-33.8h4.6v47h-4.7c-10.3-13.8-18.8-25.4-26.2-39c0.2 2.3 0.2 4.9 0.2 7.5v31.5zm96.7 0h-27.5v-47h27.5v4.2h-22.6v16.5h19.3v4.3h-19.3v17.8h22.6zm26.5-21.3c-4.3 5.9-9.3 13.6-12.9 21.3h-5.1c3.8-8.6 9.6-17 15.7-24.7l-14.7-22.4h5.5l12.9 19.5c5.1-6.3 9.4-13.3 11.9-19.5h5.1c-3.2 7.8-8.4 15.5-14.8 22.9l15.8 24.2h-5.5zm56.9 21.2h-27.4v-47h27.4v4.2h-22.5v16.5h19.3v4.3h-19.3v17.8h22.5zm11.1-47.1h4.8v42.8h22.3v4.3h-27.1zm53.4 47.8c-13.3 0-19.7-10.7-19.7-24.3c0-13.6 6.2-24.3 19.7-24.3c13.5 0 19.9 10.7 19.9 24.3c0 13.6-6.4 24.3-19.9 24.3zm0-4.3c10.5 0 14.8-8.9 14.8-20c0-11.1-4.3-20-14.8-20c-10.4 0-14.7 8.9-14.7 20c0 11.1 4.4 20 14.7 20zm32.3 3.5v-47h4.7c8.2 14.6 16.2 26.6 26.1 40.2c-0.1-1.7-0.2-3.9-0.2-6.4v-33.8h4.6v47h-4.7c-10.3-13.8-18.8-25.4-26.2-39c0.2 2.3 0.2 4.9 0.2 7.5v31.5zm66.8-23c0-14.1 6.8-24.8 21-24.8c4 0 7.9 0.8 11.5 2.3l-1.2 4.2c-3.2-1.2-6.3-2.2-10.2-2.2c-11.4 0-16 9.2-16 20.5c0 11.6 5.2 19.5 16.3 19.5c4.4 0 7.7-1.3 10.4-2.5l1 4.2c-2.7 1.4-7 2.6-11.5 2.6c-13.9 0-21.3-9.5-21.3-23.8zm59.5 23.8c-13.4 0-19.8-10.7-19.8-24.3c0-13.6 6.3-24.3 19.8-24.3c13.4 0 19.8 10.7 19.8 24.3c0 13.6-6.4 24.3-19.8 24.3zm0-4.3c10.4 0 14.8-8.9 14.8-20c0-11.1-4.4-20-14.8-20c-10.5 0-14.7 8.9-14.7 20c0 11.1 4.3 20 14.7 20zm78.9-43.5v47h-4.6v-31.3c0-2.7 0.2-5.1 0.2-7.2c-4.3 10-9.6 20-16.8 31.3h-4.2c-7.2-11.3-12.6-21.5-17-31.4c0.2 2.1 0.3 4.6 0.3 7.3v31.3h-4.6v-47h5c4.9 11.8 11 23.1 18.5 35.1c7.3-12 13.4-23.3 18.2-35.1zm14.6 0h11.4c11.4 0 18.7 4.5 18.7 15c0 10.5-7.3 15-18.7 15h-6.6v17h-4.8zm11.4 4.2h-6.6v21.6h6.6c8.2 0 13.7-2.5 13.7-10.7c0-8.3-5.5-10.9-13.7-10.9zm53.6 29h-21.2c-1.6 4.6-3 9.2-4.4 13.9h-5c5.3-17 10.9-32.9 17.4-47.1h5.1c6.6 14.2 12.3 29.9 17.5 47.1h-5c-1.4-4.7-2.8-9.3-4.4-13.9zm-19.8-4.2h18.4c-3.3-9.6-6.6-18.3-9.2-24c-2.6 5.7-5.9 14.4-9.2 24zm39.2 18.1v-47.1h4.8c8.1 14.7 16.2 26.6 26.1 40.3c-0.1-1.8-0.2-3.9-0.2-6.4v-33.9h4.6v47.1h-4.7c-10.3-13.8-18.8-25.4-26.2-39.1c0.2 2.3 0.2 4.9 0.2 7.5v31.6zm61.1-19.9c-7.1-9.4-12.1-17.5-16.1-27.2h5.1c3.4 8.2 7.3 14.7 13.5 23.2c6.2-8.5 10-15 13.4-23.2h5.1c-4.1 9.7-9 17.8-16.1 27.1v20h-4.9z" />
			<path id="&lt;Compound Path&gt;" fill-rule="evenodd" class="s1" d="m324.2 262.7c-2.8 8.2-9.8 14.4-20.7 18.6c-9 3.4-16.6 4-24 4.5c-6.5 0.4-12.6 0.9-19.2 3.3c-7.4 2.7-14.5 7.5-22.2 15.1c-7.9 7.8-16.1 13.3-24.3 16.3q-7.1 2.6-13.8 2.6q-4.4 0-8.5-1.1c-6.2-1.6-11.6-5-16.1-10.1c-4.5-5-7.9-11.5-10-19.2c-2.3-8.6-5.4-15.2-9.4-20.2c-4.2-5.2-9.5-8.8-16-10.8c-8.3-2.5-15.6-7.1-21.2-13.1c-5.8-6.2-9.4-13.7-10.5-21.6c-1.2-9.1 1-18.6 6.3-27.6c5.9-10.1 15.7-19.4 29-27.9c5.3-3.4 9.1-7.7 12.7-14.6c4.3-8.2 8.2-19.9 12.2-36.9c1.5-6.4 4-10.3 7.6-12c6.3-2.8 14.3 1.5 24.6 7c13.3 7 29.9 15.8 47.8 11.2c22.1-5.7 35.4 0.9 42.7 7.4c11 10 15.9 27.1 13.1 45.7c-1.9 12.7-0.2 22.4 5.6 32.3c4.5 7.7 9.6 16.8 12.7 25.6c3.6 10.2 4.1 18.5 1.6 25.5zm-20.9-55c-0.3-0.7-0.7-1.4-1.1-2.2q0.5 3.5 0.6 7c0.4 10.7-1.3 21.2-4.9 31.2c-3.8 10.3-9.6 19.7-17.2 27.9q-4.8 5.1-10.4 9.4c5.4-2.3 10.7-4.9 16.1-8.8c12.3-9 19.2-21 20.5-35.5c0.8-8.8-0.4-18.5-3.6-29zm-24.9 61.6c14.4-15.4 21.9-35.6 21.1-56.7c-0.7-21.2-9.7-40.7-25.1-55.1c-14.8-13.8-33.8-21.3-53.9-21.3q-1.4 0-2.9 0.1c-21.1 0.7-40.7 9.7-55.1 25.1c-14.4 15.5-22 35.7-21.2 56.8c0.8 21.1 9.7 40.7 25.2 55.1c14.7 13.8 33.8 21.3 53.8 21.3q1.5 0 2.9-0.1c21.2-0.7 40.7-9.7 55.2-25.2zm3.1-109.2c-10.7-19.1-28.9-28.6-50.6-26.5c6.1 0.8 12 2.2 17.8 4.3c10.4 3.8 19.8 9.6 27.9 17.2q2.6 2.4 4.9 5zm-77.6-25.5q-0.5 0-0.9 0c-16.8-0.6-30.1-1.2-37.8 13.2q-1.6 2.9-3 5.6q-1.4 3.6-2.8 6.6q0.3-0.4 0.7-0.8c7.6-8.1 16.5-14.5 26.6-19.1c5.5-2.4 11.3-4.3 17.2-5.5zm-63.8 62.2c-6.2 12.8-8 25.8-5.3 38.1c2.6 11.9 9.7 22.6 20 30.3c-3.8-4.9-7-10.3-9.6-16.1c-4.4-9.7-6.8-20.1-7.2-30.8c-0.2-7.3 0.5-14.5 2.1-21.5zm40.7 90.9q0.6 0.7 1.3 1.4c6.8 7.7 15.7 12.4 25.7 13.6q2.6 0.4 5.2 0.4c8.3 0 16.9-2.5 25-7.2q-7.2 1.6-14.7 1.9q-1.5 0-2.9 0c-9.7 0-19.2-1.7-28.3-5q-5.9-2.1-11.3-5.1zm112.1-112.4q-0.3-1.8-0.5-3.7c-0.8-7.1-2.8-13.7-5.9-19.6c-3.1-6-7.3-10.9-12.4-14.5c-7.8-5.7-17.7-8-28.8-6.9c6.4 1 12.4 3 18 6.1c9.5 5.4 17.4 14.1 22.8 25c1.5 3.2 3.1 6.3 4.7 9.3q1 2.1 2.1 4.3zm-76.5-43.7c-6.1-1.1-11.7-2.8-16.8-4.3c-7.1-2.2-12.8-3.8-17.3-3.8c-6.1 0-10.1 2.8-12.9 10.7q-0.9 2.5-1.7 4.8c3.3-3.2 7.2-5.3 12.1-6.5c6.9-1.8 14.9-1.5 23.3-1.1c4.3 0.1 8.8 0.3 13.3 0.2zm-73.3 53c-18.8 19.6-21 35.9-19.4 46.3c1.7 11 8.4 20.6 18.6 26.8c-5.2-6.5-8.9-14-10.7-22.1c-3.3-15-0.2-31 8.9-46.5q1.3-2.1 2.6-4.5zm27.8 97.5c1.8 2.6 3.4 5.3 4.6 7.9c5.2 10.9 13.8 18.1 24.2 20.4c10.4 2.3 21.9-0.6 32.8-8.1c-6.4 2.6-13 4-19.5 4q-2.8 0-5.6-0.3c-10.8-1.4-20.4-6.4-27.7-14.7q-4.5-5-8.8-9.2zm123.5-7c6.9-3.7 12-8.4 15.2-13.9c2.9-5 4.3-10.8 4.2-17.4c-0.1-5.9-1.4-12.6-3.8-20c0.5 4.6 0.5 9 0.2 13.2c-1.5 15.5-8.8 28.2-21.9 37.8c-3.3 2.4-6.6 4.4-9.9 6c5.2-1.2 10.3-2.8 16-5.7zm-36.1-147.4c6.5 1 12.5 3.4 17.7 7.1c5.5 4 10 9.3 13.4 15.7c3.3 6.2 5.4 13.2 6.3 20.8c0.6 5.7 1.6 10.8 2.9 15.7q0.9 2 1.8 3.9c-0.2-3.8 0.1-7.7 0.7-12.1c2.7-17.5-1.9-33.5-12.1-42.7c-5.7-5.1-15.4-10.2-30.7-8.4zm-86.6-6.9q-0.6 2.3-1.2 4.6c2.6-3 5.7-4.6 9.8-5.1c5.8-0.6 12.5 1.5 20.2 3.8c8.2 2.5 17.1 5.2 26.6 5.4c-10.3-2.3-19.7-7.3-27.9-11.7c-7.4-3.9-14-7.4-18.8-7.4q-1.6 0-2.9 0.6c-2.7 1.2-4.6 4.4-5.8 9.8zm-37.1 135.3c-7.6-6.5-12.6-15.1-14.1-24.7c-1.8-11.5 0.6-29.7 22.2-51.1c2.4-2.3 4.6-5.1 6.7-8.4q0.3-0.6 0.6-1.2q-2.2 2-4.7 3.6c-12.8 8.1-22.2 17.1-27.9 26.8c-5 8.4-7 17-5.8 25.4c0.9 7.3 4.2 14.2 9.6 19.9c3.7 4 8.2 7.3 13.4 9.7zm93.4 52.7c-7.1 3.7-14.3 5.6-21.2 5.6q-4 0-7.8-0.8c-11.4-2.5-20.8-10.4-26.4-22.2c-2.4-5.1-5.8-9.8-9.6-14c2.2 4.1 4 8.9 5.6 14.5c1.9 7.2 5.1 13.2 9.2 17.9c4.1 4.5 9 7.6 14.5 9.1c6.4 1.7 13.2 1.2 20.4-1.4c5.1-1.9 10.2-4.8 15.3-8.7zm91.5-70.5c-1.4-4.2-3.4-8.4-5.5-12.5c2 6.6 3 12.5 3.1 18c0.1 15.2-7 26.7-21.2 34.1c-3.3 1.8-6.4 3-9.4 4c4.9-0.5 10.1-1.5 15.8-3.7c10.1-3.8 16.3-9.3 18.9-16.5c2.2-6.3 1.6-14-1.7-23.4z" />
		</g>
	</g>
</svg>